<svg version="1.1" id="Layer_1" xmlns="http://www.w3.org/2000/svg" xmlns:xlink="http://www.w3.org/1999/xlink" x="0px" y="0px"
	 width="100%" viewBox="0 0 496 496" enable-background="new 0 0 496 496" xml:space="preserve">
<path fill="#000000" opacity="1.000000" stroke="none" 
	d="
M270.514099,64.152122 
	C307.189789,74.201996 329.770660,97.269798 337.745605,134.184113 
	C338.899841,139.526718 339.291290,145.035934 339.288147,150.554184 
	C339.254730,208.700760 339.334412,266.847473 339.242340,324.993896 
	C339.171967,369.439758 308.296692,406.599854 264.455994,412.827240 
	C210.006424,420.561523 170.020340,382.856934 163.497711,339.239044 
	C162.901825,335.254120 162.663010,331.308258 162.663040,327.313446 
	C162.663574,268.167206 163.010590,209.018204 162.541763,149.875656 
	C162.227066,110.176094 191.033829,70.263939 237.293320,63.120224 
	C248.043442,61.460117 259.224945,61.780762 270.514099,64.152122 
M212.138245,378.348053 
	C227.942612,390.118866 245.697052,392.978058 264.697144,389.573792 
	C291.120819,384.839417 313.747955,359.445709 315.818298,332.655334 
	C317.501984,310.868256 316.168976,289.057007 316.618652,267.262573 
	C316.691132,263.751343 315.637482,262.208435 311.780243,262.277008 
	C299.794312,262.490204 287.801819,262.412964 275.812927,262.317078 
	C272.942108,262.294128 270.714569,263.149658 268.700775,265.197479 
	C263.914490,270.064606 258.889862,274.699982 254.168365,279.627197 
	C251.659851,282.244965 249.783920,282.379608 247.181183,279.699860 
	C242.427505,274.805603 237.314651,270.262238 232.477127,265.446442 
	C230.343781,263.322632 228.091125,262.256561 224.981445,262.298248 
	C213.659912,262.450043 202.331558,262.521667 191.013321,262.275879 
	C186.656784,262.181274 185.217194,263.582733 185.262482,267.982117 
	C185.457886,286.963745 185.336838,305.948547 185.347885,324.932190 
	C185.360687,346.908630 194.331940,364.459381 212.138245,378.348053 
M242.988327,85.381767 
	C242.009659,85.573784 241.030762,85.764549 240.052368,85.957993 
	C206.482758,92.594864 185.368622,118.161774 185.344559,152.216141 
	C185.334076,167.038513 185.341293,181.860870 185.341278,196.683243 
	C185.341263,209.340546 185.315506,221.997971 185.372726,234.655014 
	C185.381088,236.504898 184.605194,239.286804 187.493347,239.462128 
	C192.832367,239.786240 198.205124,239.554840 204.157578,239.554840 
	C188.732208,219.453262 187.784149,204.629608 200.483215,191.127289 
	C213.282028,177.518906 230.010300,177.777359 250.547546,191.900742 
	C267.340149,179.082748 284.092621,177.772476 296.294830,188.375671 
	C303.984802,195.057892 308.236664,203.418304 308.251892,213.720337 
	C308.267059,223.975815 302.627808,231.719116 295.685608,239.672302 
	C301.344391,239.672302 306.000946,239.412109 310.614563,239.745712 
	C315.196442,240.077042 316.704224,238.448013 316.675568,233.817200 
	C316.508789,206.838272 316.758972,179.856537 316.551544,152.878174 
	C316.442261,138.668381 313.533600,125.113472 304.890259,113.319405 
	C289.750061,92.660263 269.383331,83.438942 242.988327,85.381767 
M223.762527,203.501968 
	C213.260712,206.906082 211.663010,213.386185 219.474319,221.003815 
	C225.545212,226.924164 231.616058,232.845367 237.752686,238.697235 
	C241.914597,242.666000 246.190384,246.515335 250.707932,250.688461 
	C261.550598,240.051132 271.979828,229.826202 282.391052,219.583054 
	C282.856506,219.125107 283.199432,218.524979 283.531250,217.951599 
	C287.257355,211.512894 283.097351,204.341782 275.684937,204.217804 
	C271.508362,204.147964 268.948883,206.476776 266.633392,209.491119 
	C261.612976,216.026810 256.530823,222.515060 250.962830,229.680374 
	C245.189728,222.614365 239.924393,216.264130 234.771301,209.824097 
	C232.074417,206.453659 228.972717,203.890533 223.762527,203.501968 
z"/>
</svg>